<?xml version="1.0" standalone="no"?>
<!DOCTYPE svg PUBLIC "-//W3C//DTD SVG 20010904//EN"
 "http://www.w3.org/TR/2001/REC-SVG-20010904/DTD/svg10.dtd">
<svg version="1.0" xmlns="http://www.w3.org/2000/svg"
 width="700.000000pt" height="700.000000pt" viewBox="0 0 700.000000 700.000000"
 preserveAspectRatio="xMidYMid meet">
<metadata>
Created by potrace 1.14, written by Peter Selinger 2001-2017
</metadata>
<g transform="translate(0.000000,700.000000) scale(0.100000,-0.100000)"
fill="#000000" stroke="none">
<path d="M3455 6120 c-74 -16 -141 -77 -163 -145 -13 -45 -15 -3690 -1 -3739
51 -186 312 -210 405 -36 18 34 19 94 21 1886 1 1348 -1 1861 -9 1888 -31 100
-150 169 -253 146z"/>
<path d="M2552 5237 c-52 -19 -103 -66 -125 -116 -20 -46 -20 -55 -21 -1556
-1 -830 2 -1537 7 -1570 4 -33 21 -89 38 -125 27 -59 67 -102 412 -447 395
-394 419 -414 527 -443 57 -15 162 -16 220 0 110 29 142 56 532 448 392 393
407 411 438 527 12 41 14 323 14 1585 l0 1536 -23 47 c-82 168 -325 165 -397
-6 -16 -39 -17 -131 -18 -1549 -1 -828 -3 -1509 -6 -1512 -92 -98 -648 -646
-655 -644 -5 0 -154 147 -330 325 l-320 323 -1 1508 c-1 1417 -2 1510 -19
1550 -42 101 -169 156 -273 119z"/>
<path d="M1680 4360 c-68 -23 -123 -80 -139 -144 -16 -66 -15 -1384 1 -1439
27 -91 139 -162 234 -150 79 10 157 74 183 152 16 48 15 1391 -1 1443 -35 116
-160 178 -278 138z"/>
<path d="M5171 4358 c-62 -23 -114 -81 -130 -143 -16 -65 -15 -1383 1 -1439
17 -56 92 -130 144 -141 123 -27 239 33 272 142 16 53 17 1389 1 1443 -36 119
-168 182 -288 138z"/>
<path d="M802 3707 c-177 -64 -193 -322 -26 -402 187 -89 384 105 294 290 -21
43 -74 94 -115 109 -35 13 -119 15 -153 3z"/>
<path d="M6058 3706 c-56 -20 -85 -42 -113 -84 -94 -142 1 -329 170 -338 179
-9 290 193 187 341 -52 74 -163 111 -244 81z"/>
</g>
</svg>
